# xmcd
# 
# Track frame offsets:
#     150
#     17793
#     29945
#     46724
#     62726
#     77683
#     94669
#     111456
#     127458
#     142530
#     159508
# 
# Disc length: 2474
# 
# Revision: 3
# Processed by: cddbd v1.5.2PL0 Copyright (c) Steve Scherf et al.
# Submitted via: fre:ac v1.0.27
# 
DISCID=9309a80b
DTITLE=Baschi - Fürs Volk
DYEAR=2007
DGENRE=Pop/Rock
TTITLE0=Bereue nüt
TTITLE1=Wenn das Gott wüsst
TTITLE2=Fürs Volk
TTITLE3=Heimat
TTITLE4=Freinacht
TTITLE5=0545
TTITLE6=Wieder Träume
TTITLE7=Wenn du das Lied ghörsch
TTITLE8=Wiit wäg
TTITLE9=Danke
TTITLE10=Nie inre Chille
EXTD=
EXTT0=
EXTT1=
EXTT2=
EXTT3=
EXTT4=
EXTT5=
EXTT6=
EXTT7=
EXTT8=
EXTT9=
EXTT10=
PLAYORDER=
